<svg width="80" height="80" viewBox="0 0 80 80" fill="none" xmlns="http://www.w3.org/2000/svg">
<path id="Vector" d="M71.4156 31.2057C74.2974 32.8541 76.6341 35.3 78.1407 38.245C79.6473 41.19 80.2586 44.5068 79.9001 47.791C79.5417 51.0751 78.2289 54.1847 76.1219 56.7405C74.015 59.2963 71.2048 61.1878 68.0342 62.1844C66.9137 67.2358 64.09 71.7556 60.0307 74.9955C55.9715 78.2353 50.9201 80.001 45.7128 80H37.1453C36.3878 80 35.6614 79.7011 35.1259 79.1691C34.5903 78.6371 34.2894 77.9155 34.2894 77.1631C34.2894 76.4107 34.5903 75.6892 35.1259 75.1571C35.6614 74.6251 36.3878 74.3262 37.1453 74.3262H45.7128C49.2576 74.3273 52.7156 73.2366 55.6104 71.2043C58.5052 69.1721 60.6946 66.2983 61.877 62.9787H59.9921C59.2347 62.9787 58.5083 62.6798 57.9727 62.1478C57.4372 61.6158 57.1363 60.8942 57.1363 60.1418V31.7731C57.1363 31.0207 57.4372 30.2991 57.9727 29.7671C58.5083 29.2351 59.2347 28.9362 59.9921 28.9362H62.848C63.7733 28.9362 64.6815 29.0099 65.5725 29.1518C64.9295 22.859 61.958 17.0272 57.2337 12.7865C52.5094 8.54578 46.3686 6.19796 40.0011 6.19796C33.6337 6.19796 27.4929 8.54578 22.7685 12.7865C18.0442 17.0272 15.0727 22.859 14.4298 29.1518C15.3307 29.0084 16.2418 28.9363 17.1542 28.9362H20.0101C20.7675 28.9362 21.4939 29.2351 22.0295 29.7671C22.5651 30.2991 22.866 31.0207 22.866 31.7731V60.1418C22.866 60.8942 22.5651 61.6158 22.0295 62.1478C21.4939 62.6798 20.7675 62.9787 20.0101 62.9787H17.1542C13.3787 62.9829 9.70745 61.7483 6.71093 59.4667C3.7144 57.1851 1.56036 53.9842 0.583492 50.3615C-0.39338 46.7387 -0.138391 42.8969 1.30884 39.4329C2.75607 35.9689 5.31451 33.0767 8.58666 31.2057C8.58666 22.9294 11.8964 14.9921 17.7877 9.13993C23.6791 3.28773 31.6695 0 40.0011 0C48.3327 0 56.3231 3.28773 62.2145 9.13993C68.1058 14.9921 71.4156 22.9294 71.4156 31.2057ZM17.1542 34.6099C14.1246 34.6099 11.219 35.8055 9.07665 37.9335C6.93434 40.0616 5.7308 42.9479 5.7308 45.9575C5.7308 48.967 6.93434 51.8533 9.07665 53.9814C11.219 56.1094 14.1246 57.305 17.1542 57.305V34.6099ZM74.2714 45.9575C74.2714 42.9479 73.0679 40.0616 70.9256 37.9335C68.7833 35.8055 65.8777 34.6099 62.848 34.6099V57.305C65.8777 57.305 68.7833 56.1094 70.9256 53.9814C73.0679 51.8533 74.2714 48.967 74.2714 45.9575Z" fill="#850000"/>
</svg>
