<svg width="80" height="80" viewBox="0 0 80 80" fill="none" xmlns="http://www.w3.org/2000/svg">
<path id="Vector" d="M35.4738 52.7772L31.1208 48.3688C31.1208 48.3688 18.7332 53.1087 6.23489 40.8745C-4.36726 30.4037 0.321394 13.9832 7.23832 7.26127C14.6052 -0.0143655 30.3388 -4.42277 41.8337 6.92976C53.3286 18.2823 48.4185 31.7262 48.4185 31.7262L80 62.8072L79.1073 79.009L63.038 80L62.1453 72.0649L53.7749 71.0739L52.9929 62.8072L44.7333 61.7033L43.5049 53.7682L35.4738 52.7772ZM11.5913 11.6697C6.68126 16.5189 5.34215 23.0222 8.57743 26.1081C11.8127 29.3033 18.2868 27.9808 23.1969 23.1315C28.107 18.2823 29.5568 11.779 26.3215 8.69312C23.1969 5.49791 16.5014 6.82043 11.5913 11.6697ZM76.2041 68.979L76.4291 64.3484L46.4116 34.7027L43.9548 37.1291L76.2041 68.979Z" fill="#850000"/>
</svg>
